# xmcd
#
# Track frame offsets:
#	150
#	20121
#	40873
#	58918
#	80270
#	114956
#	135365
#	153472
#	169897
#	190122
#	208894
#
# Disc length: 3048 seconds
#
# Revision: 0
# Processed by: cddbd v1.5.2PL0 Copyright (c) Steve Scherf et al.
# Submitted via: audiograbber 1.83.01
#
DISCID=920be60b
DTITLE=Leonor - O Perfume Derramado
DYEAR=2004
DGENRE=Gospel
TTITLE0=O perfume derramado
TTITLE1=Espírito de vida
TTITLE2=Minha fé
TTITLE3=Autor de minha vida
TTITLE4=Espírito santo
TTITLE5=Olhos de quem ama
TTITLE6=Quando o sonho acontece
TTITLE7=Louva-me
TTITLE8=Bendito seja o senhor
TTITLE9=Minha cara metade
TTITLE10=Shalon Jérusalem
EXTD=
EXTT0=
EXTT1=
EXTT2=
EXTT3=
EXTT4=
EXTT5=
EXTT6=
EXTT7=
EXTT8=
EXTT9=
EXTT10=
PLAYORDER=
